# xmcd CD database file generated by Grip 3.2.0
# 
# Track frame offsets:
#       200
#       10297
#       22820
#       35877
#       53755
#       68017
#       79785
#       92330
#       114782
#       135490
#       160215
#       182722
#       196565
# 
# Disc length: 2970 seconds
# 
# Revision: 2
# Processed by: cddbd v1.5.2PL0 Copyright (c) Steve Scherf et al.
# Submitted via: Grip 3.2.0
# 
DISCID=920b980d
DTITLE=Earl Hines - Hines Shines
DYEAR=1993
DGENRE=Jazz
TTITLE0=Intermezzo
TTITLE1=Dark Eyes
TTITLE2=Blues for Garroway
TTITLE3=Humoresque
TTITLE4=The Web
TTITLE5=Hollywood Hop
TTITLE6=A Jumpin's Something
TTITLE7=It's Right There For You
TTITLE8=Savoy Blues
TTITLE9=Apex Blues
TTITLE10=When The Saints Go Marching In
TTITLE11=Won't You Go Home Bill Bailey
TTITLE12=Pop's Blues
EXTD=
EXTT0=
EXTT1=
EXTT2=
EXTT3=
EXTT4=
EXTT5=
EXTT6=
EXTT7=
EXTT8=
EXTT9=
EXTT10=
EXTT11=
EXTT12=
PLAYORDER=
